<svg xmlns="http://www.w3.org/2000/svg" aria-hidden="true" style="position:absolute;width:0;height:0;overflow:hidden">
  <defs>
    <symbol id="icon-arrow" viewBox="0 0 32 32">
      <path d="m13.615 32 16-16-16-16-3.373 3.373 10.241 10.241H0v4.771h20.483L10.242 28.626l3.373 3.373z"/>
    </symbol>
    <symbol id="icon-copy" viewBox="0 0 28 32">
      <path d="M23.879.879A3 3 0 0 0 21.758 0H11.001a3 3 0 0 0-3 3v3h-5a3 3 0 0 0-3 3v20a3 3 0 0 0 3 3h14a3 3 0 0 0 3-3v-3h5a3 3 0 0 0 3-3V6.243c0-.796-.316-1.559-.879-2.121L23.879.879zM3.375 29A.378.378 0 0 1 3 28.625V9.375A.378.378 0 0 1 3.375 9H8v14a3 3 0 0 0 3 3h6v2.625a.378.378 0 0 1-.375.375H3.375zm21.25-6h-13.25a.378.378 0 0 1-.375-.375V3.375A.376.376 0 0 1 11.375 3H18v5.5a1.5 1.5 0 0 0 1.5 1.5H25v12.625a.378.378 0 0 1-.375.375zM21 7V3h.602c.1 0 .195.039.265.11l3.023 3.023a.372.372 0 0 1 .11.266v.602h-4z"/>
    </symbol>
  </defs>
</svg>